<svg version="1.1" viewBox="0.0 0.0 80.0 32.0" fill="none" stroke="none" stroke-linecap="square" stroke-miterlimit="10" xmlns:xlink="http://www.w3.org/1999/xlink" xmlns="http://www.w3.org/2000/svg"><clipPath id="p.0"><path d="m0 0l80.0 0l0 32.0l-80.0 0l0 -32.0z" clip-rule="nonzero"/></clipPath><g clip-path="url(#p.0)"><path fill="#000000" fill-opacity="0.0" d="m0 0l80.0 0l0 32.0l-80.0 0z" fill-rule="evenodd"/><path fill="#000000" fill-opacity="0.0" d="m-0.014623097 1.8267716l80.0315 0l0 28.346458l-80.0315 0z" fill-rule="evenodd"/><path fill="#ffffff" d="m2.2666268 23.30677l0 -2.40625l8.015625 -10.671874l1.265625 1.46875l-8.734375 0l0 -3.328125l11.265625 0l0 2.390625l-7.9687505 10.687499l-1.28125 -1.3125l9.484375 0l0 3.171875l-12.046875 0zm15.160919 0l0 -14.937499l3.625 0l0 11.734374l6.65625 0l0 3.203125l-10.28125 0zm11.098251 0l5.906252 -14.937499l3.0625 0l5.875 14.937499l-3.671875 0l-2.8125 -7.578124q-0.171875 -0.4375 -0.34375 -0.953125q-0.171875 -0.515625 -0.34375 -1.046875q-0.171875 -0.546875 -0.328125 -1.0625q-0.15625 -0.53125 -0.265625 -0.984375l0.640625 -0.015625q-0.125 0.53125 -0.296875 1.046875q-0.15625 0.5 -0.3125 1.015625q-0.15625 0.5 -0.359375 1.0q-0.1875 0.5 -0.359375 1.03125l-2.8125 7.546874l-3.578127 0zm2.8125 -2.859375l1.1250019 -2.734375l6.875 0l1.109375 2.734375l-9.109377 0zm13.8799 2.859375l0 -14.937499l3.25 0l7.828125 10.671874l-0.703125 -0.109375q-0.109375 -0.703125 -0.1875 -1.34375q-0.0625 -0.640625 -0.109375 -1.25q-0.046875 -0.62499905 -0.078125 -1.265624q-0.03125 -0.640625 -0.046875 -1.375q-0.015625 -0.75 -0.015625 -1.625l0 -3.703125l3.515625 0l0 14.937499l-3.28125 0l-8.171875 -10.999999l1.09375 0.140625q0.109375 1.03125 0.171875 1.75q0.078125 0.703125 0.125 1.265625q0.0625 0.54687405 0.078125 0.99999905q0.03125 0.4375 0.03125 0.875q0.015625 0.4375 0.015625 0.984375l0 4.984375l-3.515625 0zm17.211868 0l0 -14.937499l6.249996 0q1.640625 0 3.0 0.546875q1.375 0.546875 2.359375 1.546875q1.0 1.0 1.53125 2.375q0.53125 1.359375 0.53125 3.0q0 1.640624 -0.53125 3.015624q-0.53125 1.375 -1.53125 2.375q-0.984375 0.984375 -2.359375 1.53125q-1.359375 0.546875 -3.0 0.546875l-6.249996 0zm3.6249962 -2.46875l-0.484375 -0.734375l3.0 0q0.90625 0 1.609375 -0.296875q0.703125 -0.3125 1.203125 -0.859375q0.5 -0.5625 0.765625 -1.34375q0.28125 -0.796875 0.28125 -1.765624q0 -0.953125 -0.28125 -1.734375q-0.265625 -0.796875 -0.765625 -1.34375q-0.5 -0.5625 -1.203125 -0.875q-0.703125 -0.3125 -1.609375 -0.3125l-3.0625 0l0.546875 -0.671875l0 9.937499z" fill-rule="nonzero"/></g></svg>